<svg width="119" height="69" viewBox="0 0 119 69" fill="none" xmlns="http://www.w3.org/2000/svg">
<path fill-rule="evenodd" clip-rule="evenodd" d="M3.67128 43.4126C18.0069 37.1668 27.5663 33.0492 32.3493 31.0597C46.0058 25.3795 48.8435 24.3928 50.6931 24.3602C51.0999 24.353 52.0095 24.4539 52.5987 24.9319C53.0962 25.3356 53.2331 25.8809 53.2986 26.2637C53.3641 26.6464 53.4456 27.5183 53.3808 28.1995C52.6407 35.9753 49.4385 54.8452 47.8094 63.5542C47.1201 67.2393 45.7628 68.4749 44.4488 68.5958C41.593 68.8586 39.4245 66.7086 36.6587 64.8955C32.3306 62.0584 29.8855 60.2923 25.6843 57.5238C20.8292 54.3243 23.9766 52.5658 26.7435 49.6919C27.4676 48.9398 40.05 37.4953 40.2935 36.4571C40.3239 36.3272 40.3522 35.8432 40.0647 35.5876C39.7771 35.3321 39.3528 35.4195 39.0465 35.489C38.6124 35.5875 31.6983 40.1575 18.304 49.199C16.3415 50.5466 14.5638 51.2032 12.9712 51.1688C11.2153 51.1309 7.83785 50.1761 5.32704 49.3599C2.24742 48.3588 -0.200195 47.8296 0.0129377 46.1295C0.12395 45.2439 1.3434 44.3383 3.67128 43.4126Z" fill="#5D6CDD"/>
<path fill-rule="evenodd" clip-rule="evenodd" d="M81.1343 13.5666C92.2475 13.1582 99.6458 12.9171 103.329 12.8434C113.846 12.6328 115.981 12.7172 117.214 13.1764C117.485 13.2774 118.061 13.5805 118.326 14.0501C118.551 14.4467 118.5 14.8432 118.444 15.1136C118.387 15.384 118.215 15.9824 117.995 16.4165C115.484 21.3715 108.459 33.0304 105.117 38.3721C103.703 40.6324 102.484 41.0975 101.582 40.836C99.6235 40.2677 98.7469 38.2808 97.3872 36.3617C95.2596 33.3587 94.1 31.554 92.0386 28.6294C89.6562 25.2495 92.1968 24.9035 94.7754 23.7203C95.4502 23.4106 106.754 19.105 107.185 18.4811C107.239 18.403 107.383 18.09 107.26 17.8461C107.136 17.6022 106.832 17.5497 106.611 17.5161C106.298 17.4685 100.533 18.6966 89.3168 21.2004C87.6674 21.5824 86.32 21.555 85.2746 21.1182C84.1222 20.6367 82.1345 19.1268 80.6846 17.9339C78.9062 16.4708 77.4235 15.4842 78.0065 14.4142C78.3101 13.8569 79.3527 13.5743 81.1343 13.5666Z" fill="#5D6CDD"/>
</svg>
