<svg width="260" height="302" viewBox="0 0 260 302" fill="none" xmlns="http://www.w3.org/2000/svg">
<path d="M178.555 67.9989C187.945 56.9807 192.828 20.5454 159.774 13.4086C126.845 6.27185 109.441 49.5934 124.09 63.9922C138.739 78.5162 161.527 88.1572 178.555 67.9989Z" stroke="black" stroke-width="1.5" stroke-miterlimit="10" stroke-linecap="round" stroke-linejoin="round"/>
<path d="M166.158 13.7838C166.158 13.7838 156.267 -7.25091 124.465 4.64374C124.465 4.64374 137.862 5.26979 140.616 6.77227C140.616 6.77227 124.089 5.52024 111.694 12.9074C111.694 12.9074 120.333 14.1595 125.466 14.2847C125.466 14.2847 101.927 28.1826 96.9191 38.8252C96.9191 38.8252 110.692 31.8136 114.448 33.0657C114.448 33.0657 85.6505 52.4728 84.3984 55.3525C84.3984 55.3525 103.43 51.4711 108.313 55.1021C108.313 55.1021 93.1629 73.3823 93.1629 80.8947C93.1629 80.8947 115.575 73.5075 118.83 75.636C118.83 75.636 107.937 83.524 109.064 90.16C109.064 90.16 125.717 81.8964 130.6 83.6493C130.6 83.6493 125.842 95.0431 127.219 98.5489C127.219 98.5489 147.252 84.0249 147.252 79.6427M166.284 147.254C180.182 102.806 232.769 50.0939 250.423 37.6984C268.077 25.4281 256.057 11.5301 231.767 27.807C207.477 44.0839 182.561 62.8649 182.561 62.8649" stroke="black" stroke-width="1.5" stroke-miterlimit="10" stroke-linecap="round" stroke-linejoin="round"/>
<path d="M127.818 85.4028C127.818 85.4028 92.0085 123.591 69.0956 145.502C46.1828 167.413 64.5882 169.041 88.0019 153.39C111.416 137.614 126.19 126.972 126.19 126.972M126.566 128.474C126.566 128.474 84.3709 167.413 117.3 213.114C117.3 213.114 124.437 222.755 139.963 242.913C155.488 263.071 174.645 252.304 164.128 230.142C153.61 207.98 155.238 188.072 141.465 173.548C141.465 173.548 164.378 180.936 176.398 180.31C187.166 179.809 188.042 186.069 186.665 207.605C185.162 229.266 196.055 243.163 206.197 210.109C216.339 177.054 220.721 160.402 205.696 157.146C190.671 153.891 169.637 146.754 166.381 147.38M123.811 221.628C123.811 221.628 144.721 231.394 156.114 206.728M113.544 286.485L238.5 202.972" stroke="black" stroke-width="1.5" stroke-miterlimit="10" stroke-linecap="round" stroke-linejoin="round"/>
<path d="M145.986 294.534C152.378 290.41 154.824 282.828 151.451 277.598C148.077 272.369 140.16 271.472 133.769 275.596C127.377 279.719 124.93 287.301 128.304 292.531C131.678 297.76 139.594 298.657 145.986 294.534Z" stroke="black" stroke-width="1.5" stroke-miterlimit="10" stroke-linecap="round" stroke-linejoin="round"/>
<path d="M233.874 234.854C240.905 230.319 243.991 222.591 240.767 217.593C237.543 212.596 229.23 212.222 222.199 216.758C215.168 221.294 212.082 229.022 215.306 234.019C218.53 239.016 226.843 239.39 233.874 234.854Z" stroke="black" stroke-width="1.5" stroke-miterlimit="10" stroke-linecap="round" stroke-linejoin="round"/>
<path d="M75.9989 61.3623L29.5472 91.4119M53.2113 120.46L1 154.266M43.3199 184.065L7.51075 207.103M81.0071 221.001L33.1781 251.927" stroke="black" stroke-width="1.5" stroke-miterlimit="10" stroke-linecap="round" stroke-linejoin="round"/>
</svg>
