<svg width="320" height="360" viewBox="0 0 320 360" fill="none" xmlns="http://www.w3.org/2000/svg">
<path d="M17.3468 140.52L56.9784 260.437C57.4897 262.227 58.7681 263.506 60.3023 264.528L158.998 322.825C162.066 324.615 166.157 324.359 169.225 322.058L198.374 299.302C200.419 297.768 201.442 295.211 200.931 292.654L173.061 158.162C172.549 155.861 170.76 153.816 168.458 152.793L60.5579 110.604C58.001 109.582 54.9328 109.837 52.6316 111.371L20.6707 131.315C17.6024 133.361 16.324 137.196 17.3468 140.52Z" stroke="black" stroke-width="1.5" stroke-miterlimit="10" stroke-linecap="round" stroke-linejoin="round"/>
<path d="M29.1094 141.542L126.271 182.196L159.766 160.974L126.271 182.196L162.067 314.642" stroke="black" stroke-width="1.5" stroke-miterlimit="10" stroke-linecap="round" stroke-linejoin="round"/>
<path d="M81.2188 117.508L83.2642 100.121C83.7756 96.0298 86.0769 92.4503 89.4008 90.1491L157.158 47.4492C160.738 45.148 165.34 45.6594 168.664 48.472L275.797 142.565C280.655 146.912 282.189 153.815 279.377 159.696L243.836 235.124C241.791 239.471 238.723 243.306 234.887 246.119L198.324 274.244" stroke="black" stroke-width="1.5" stroke-miterlimit="10" stroke-linecap="round" stroke-linejoin="round"/>
<path d="M58.0078 141.029L76.1617 129.779" stroke="black" stroke-width="1.5" stroke-miterlimit="10" stroke-linecap="round" stroke-linejoin="round"/>
<path d="M95.0938 157.394L114.27 144.098" stroke="black" stroke-width="1.5" stroke-miterlimit="10" stroke-linecap="round" stroke-linejoin="round"/>
<path d="M52.1094 164.041L83.5589 267.338" stroke="black" stroke-width="1.5" stroke-miterlimit="10" stroke-linecap="round" stroke-linejoin="round"/>
<path d="M89.1953 179.128L119.878 283.96" stroke="black" stroke-width="1.5" stroke-miterlimit="10" stroke-linecap="round" stroke-linejoin="round"/>
<path d="M43.9688 186.543L120.931 224.385" stroke="black" stroke-width="1.5" stroke-miterlimit="10" stroke-linecap="round" stroke-linejoin="round"/>
<path d="M57.7578 232.567L133.186 272.71" stroke="black" stroke-width="1.5" stroke-miterlimit="10" stroke-linecap="round" stroke-linejoin="round"/>
<path d="M149.773 226.429L169.973 212.877" stroke="black" stroke-width="1.5" stroke-miterlimit="10" stroke-linecap="round" stroke-linejoin="round"/>
<path d="M163.586 275.267L181.995 261.716" stroke="black" stroke-width="1.5" stroke-miterlimit="10" stroke-linecap="round" stroke-linejoin="round"/>
<path d="M94.0547 106.002L127.55 136.173" stroke="black" stroke-width="1.5" stroke-miterlimit="10" stroke-linecap="round" stroke-linejoin="round"/>
<path d="M178.445 181.94L200.179 202.651C203.503 205.719 204.526 210.577 202.992 214.924L192.253 244.328" stroke="black" stroke-width="1.5" stroke-miterlimit="10" stroke-linecap="round" stroke-linejoin="round"/>
<path d="M137.273 75.0627L248.498 176.059L216.281 251.487" stroke="black" stroke-width="1.5" stroke-miterlimit="10" stroke-linecap="round" stroke-linejoin="round"/>
<path d="M214.227 202.906L267.154 162.252" stroke="black" stroke-width="1.5" stroke-miterlimit="10" stroke-linecap="round" stroke-linejoin="round"/>
<path d="M134.477 123.645L190.472 85.2915" stroke="black" stroke-width="1.5" stroke-miterlimit="10" stroke-linecap="round" stroke-linejoin="round"/>
<path d="M184.555 156.881L230.067 123.131" stroke="black" stroke-width="1.5" stroke-miterlimit="10" stroke-linecap="round" stroke-linejoin="round"/>
<path d="M206.789 233.332L251.023 197.536" stroke="black" stroke-width="1.5" stroke-miterlimit="10" stroke-linecap="round" stroke-linejoin="round"/>
<path d="M203.242 254.301L236.482 228.732" stroke="black" stroke-width="1.5" stroke-miterlimit="10" stroke-linecap="round" stroke-linejoin="round"/>
<path d="M45.738 23.7742C52.1841 25.6984 52.4728 31.8559 52.4728 31.8559V66.8766C52.4728 68.6084 51.5106 70.1478 50.0675 71.0137L21.0118 87.5619C17.9331 89.2937 14.4695 90.2558 11.0059 90.0634C7.15751 89.871 4.75221 88.6202 3.21284 87.3695C1.76967 86.1188 1 84.387 1 82.559V45.9989C1 44.1709 1.96212 42.5353 3.5977 41.6694L8.21581 39.0717" stroke="black" stroke-width="1.5" stroke-miterlimit="10" stroke-linecap="round" stroke-linejoin="round"/>
<path d="M17.8438 33.8762L32.9488 25.6021C34.0072 25.0248 35.0655 24.5438 36.1238 24.1589" stroke="black" stroke-width="1.5" stroke-miterlimit="10" stroke-linecap="round" stroke-linejoin="round"/>
<path d="M13.0293 47.5381C10.3354 47.5381 8.21875 45.4215 8.21875 42.7276V28.0074C8.21875 23.4855 9.08466 19.2521 10.8165 15.4037C14.0876 8.18791 19.4754 3.47363 26.3064 1.74184C32.1752 0.298676 36.9858 0.972151 40.5456 3.66605C45.4523 7.41827 45.6448 13.2871 45.6448 13.9606V14.0568V27.8149C45.6448 30.5088 43.5281 32.6255 40.8342 32.6255C38.1403 32.6255 36.0237 30.5088 36.0237 27.8149V14.2492C36.0237 14.0568 35.8313 12.2288 34.5805 11.3629C33.426 10.497 31.3094 10.4008 28.5193 11.1705C24.5746 12.1326 21.592 14.8265 19.5716 19.4446C18.4171 22.0423 17.8398 24.9286 17.8398 28.1035V42.8238C17.8398 45.4215 15.627 47.5381 13.0293 47.5381Z" stroke="black" stroke-width="1.5" stroke-miterlimit="10"/>
<path d="M5.80469 48.2116C7.44027 52.8298 15.3296 53.9843 23.6037 48.9813C31.8778 43.9784 47.6564 34.9346 47.6564 34.9346" stroke="black" stroke-width="1.5" stroke-miterlimit="10" stroke-linecap="round" stroke-linejoin="round"/>
<path d="M35.3427 53.6957C31.9753 55.5237 31.1094 59.4683 31.1094 61.0077C31.1094 62.5471 32.6487 64.4713 33.9957 64.2789V73.9L39.3835 70.4364L38.6139 62.7395C38.6139 62.7395 40.5381 59.8532 40.057 56.6782C39.576 53.5033 37.4593 52.5412 35.3427 53.6957Z" stroke="black" stroke-width="1.5" stroke-miterlimit="10" stroke-linecap="round" stroke-linejoin="round"/>
<path d="M274.555 358.464C299.162 358.464 319.109 338.516 319.109 313.909C319.109 289.303 299.162 269.355 274.555 269.355C249.948 269.355 230 289.303 230 313.909C230 338.516 249.948 358.464 274.555 358.464Z" stroke="black" stroke-width="1.5" stroke-miterlimit="10" stroke-linecap="round" stroke-linejoin="round"/>
<path d="M274.58 347.52C293.143 347.52 308.192 332.472 308.192 313.909C308.192 295.346 293.143 280.298 274.58 280.298C256.017 280.298 240.969 295.346 240.969 313.909C240.969 332.472 256.017 347.52 274.58 347.52Z" stroke="black" stroke-width="1.5" stroke-miterlimit="10" stroke-linecap="round" stroke-linejoin="round"/>
<path d="M284.412 295.619L273.938 313.597L288.789 322.195" stroke="black" stroke-width="1.5" stroke-miterlimit="10" stroke-linecap="round" stroke-linejoin="round"/>
<path d="M310.019 271.074L293.136 261.225C290.478 259.662 289.696 256.379 291.103 253.721C292.667 251.064 295.95 250.282 298.607 251.689L315.491 261.538C318.149 263.101 318.93 266.384 317.523 269.042C315.96 271.7 312.677 272.638 310.019 271.074Z" stroke="black" stroke-width="1.5" stroke-miterlimit="10" stroke-linecap="round" stroke-linejoin="round"/>
<path d="M294.927 262.177L289.711 271.079L303.199 278.982L308.415 270.079L294.927 262.177Z" stroke="black" stroke-width="1.5" stroke-miterlimit="10" stroke-linecap="round" stroke-linejoin="round"/>
<path d="M18.9916 286.862C18.7067 287.292 19.2764 286.146 14.8617 297.169C14.4344 297.741 13.58 297.741 13.1527 296.883C9.8773 291.3 3.61128 291.157 1.61754 296.453C-0.518615 301.606 3.18403 308.907 8.16838 309.479C8.88043 309.623 9.45008 310.625 9.30767 311.34C5.03537 322.506 5.46259 321.218 5.32018 321.79C5.17777 322.363 5.3202 323.222 5.88984 323.651L15.5737 330.809C15.7161 331.381 15.7161 331.954 15.2889 332.383C12.1559 334.817 12.5831 340.256 13.4376 341.974C17.7099 351.279 26.8241 348.988 26.3969 340.686C26.3969 339.97 26.8241 339.54 27.2513 339.54L36.9352 346.698C37.5048 347.127 38.2169 346.984 38.3593 346.268C42.774 334.96 42.4892 335.532 42.4892 335.532C42.774 334.673 42.2044 333.528 41.3499 333.528C38.7865 333.528 36.0808 331.667 34.2294 327.659C32.3781 322.792 34.3718 317.496 38.3593 316.923C41.7771 316.923 44.3405 319.214 45.7646 322.076C46.1919 323.079 47.3311 323.365 47.7584 322.22C47.9008 322.077 47.4736 323.079 51.8883 311.484C52.1731 310.911 51.8883 310.052 51.3186 309.623L41.6347 302.322C41.3499 301.75 41.4923 301.034 41.9196 300.748C47.1887 296.596 43.4861 284.858 35.5111 285.001C34.087 285.001 30.5268 287.435 30.8116 292.445C30.8116 293.161 30.5268 293.59 30.0995 293.59L20.4157 286.433C19.846 286.003 19.2764 286.146 18.9916 286.862Z" stroke="black" stroke-width="1.5" stroke-miterlimit="10" stroke-linecap="round" stroke-linejoin="round"/>
</svg>
