<svg width="333" height="343" viewBox="0 0 333 343" fill="none" xmlns="http://www.w3.org/2000/svg">
<path d="M91.843 29.6937C92.4729 29.4138 93.1028 29.2738 93.7326 29.2038C93.7326 29.2038 108.149 27.3842 111.089 27.2443C108.149 27.1043 93.6627 25.2847 93.6627 25.2847C93.0328 25.2147 92.4029 25.0747 91.7731 24.7948C91.913 24.5149 91.983 24.2349 92.123 24.025C92.6129 23.1851 96.8119 16.5366 99.4014 13.6672C96.532 16.2566 89.6735 20.3858 88.7637 20.8756C88.5538 21.0156 88.4138 21.0856 88.2038 21.1556C88.1338 20.9456 88.0639 20.7357 87.9939 20.5257C87.7839 19.5459 86.0343 4.91914 85.8244 1C85.6144 4.91914 83.6548 19.6159 83.4449 20.5957C83.3749 20.8057 83.3049 21.0156 83.2349 21.2256C82.6051 21.0156 82.0452 20.6657 81.4853 20.1758C81.4853 20.1758 75.1167 16.2567 73.0172 14.2271C75.0467 16.3966 79.1058 22.6253 79.1058 22.6253C79.5957 23.1851 79.9456 23.885 80.1556 24.5848C79.4557 24.9347 78.6859 25.2147 77.9161 25.2147C77.9161 25.2147 62.9394 26.8943 60 27.0343C62.9394 27.1743 77.9161 28.7139 77.9161 28.7139C78.616 28.7839 79.3158 28.9939 79.9456 29.2738C79.8757 29.4838 79.7357 29.6937 79.5957 29.9037C79.1058 30.7435 74.8368 37.672 72.2473 40.6113C75.1167 38.0219 81.7653 33.8228 82.6751 33.3329C82.885 33.1929 83.095 33.123 83.3749 32.983C83.4449 33.123 83.4449 33.2629 83.5149 33.4029C83.7248 34.3827 85.6844 49.2894 85.8244 53.2086C86.0343 49.2894 87.7839 34.6626 87.9939 33.6828C88.0639 33.4029 88.1339 33.123 88.2738 32.913C88.9037 33.123 89.4635 33.4729 89.9534 33.8928C89.9534 33.8928 96.532 37.8819 98.6316 39.8415C96.602 37.672 92.6129 31.0934 92.6129 31.0934C92.4029 30.8835 92.053 30.3236 91.843 29.6937Z" stroke="black" stroke-width="1.5" stroke-miterlimit="10" stroke-linecap="round" stroke-linejoin="round"/>
<path d="M78.0625 9.4679C78.7623 10.7976 79.4622 12.1973 80.162 13.527" stroke="black" stroke-width="1.5" stroke-miterlimit="10" stroke-linecap="round" stroke-linejoin="round"/>
<path d="M93.9449 10.0278C93.8749 10.0278 93.875 10.0978 93.875 10.1677C93.3151 11.3575 92.7552 12.4772 92.1953 13.667" stroke="black" stroke-width="1.5" stroke-miterlimit="10" stroke-linecap="round" stroke-linejoin="round"/>
<path d="M99.1875 21.5755C100.307 20.8757 101.497 20.3158 102.757 19.8959" stroke="black" stroke-width="1.5" stroke-miterlimit="10" stroke-linecap="round" stroke-linejoin="round"/>
<path d="M98.9922 32.4229C100.392 33.3327 101.862 34.1725 103.331 34.8723" stroke="black" stroke-width="1.5" stroke-miterlimit="10" stroke-linecap="round" stroke-linejoin="round"/>
<path d="M92.5391 41.4509C93.0989 42.7806 93.7288 44.1803 94.2887 45.51" stroke="black" stroke-width="1.5" stroke-miterlimit="10" stroke-linecap="round" stroke-linejoin="round"/>
<path d="M80.1559 41.4509C79.596 42.7107 79.0361 43.9704 78.4062 45.2301" stroke="black" stroke-width="1.5" stroke-miterlimit="10" stroke-linecap="round" stroke-linejoin="round"/>
<path d="M72.66 33.0527C71.2603 33.8226 69.8606 34.5924 68.4609 35.3622" stroke="black" stroke-width="1.5" stroke-miterlimit="10" stroke-linecap="round" stroke-linejoin="round"/>
<path d="M68.9531 20.0358C70.3528 20.5257 71.7525 21.0855 73.1522 21.7154" stroke="black" stroke-width="1.5" stroke-miterlimit="10" stroke-linecap="round" stroke-linejoin="round"/>
<path d="M187.455 295.409C183.389 302.975 182.926 309.255 184.676 316.307C185.602 319.961 187.044 323.41 189.051 326.498C194.867 335.66 205.316 341.734 216.486 341.992C227.655 342.249 239.185 336.587 245.877 327.27C252.568 317.902 254.009 305.189 249.222 295.357C247.73 292.372 245.774 289.644 243.509 287.225C241.141 284.651 238.465 282.335 235.428 280.533C227.707 276.004 218.236 274.665 209.331 277.445C200.375 280.173 193.066 284.96 187.455 295.409Z" stroke="black" stroke-width="1.5" stroke-miterlimit="10" stroke-linecap="round" stroke-linejoin="round"/>
<path d="M206.596 278.526C206.236 278.474 206.082 279.04 206.288 279.298C206.493 279.555 206.905 279.607 207.265 279.607C211.744 279.813 216.222 278.268 220.7 278.989C221.472 279.092 222.296 279.349 222.656 280.018C223.273 281.048 222.45 282.335 221.626 283.158C216.994 288.048 210.405 291.137 206.957 296.901C206.596 297.519 206.236 298.291 206.648 298.909C207.06 299.578 208.038 299.527 208.81 299.372C214.266 298.24 219.053 294.946 224.303 293.041C225.641 292.526 227.082 292.115 228.524 292.217C228.781 292.217 229.09 292.269 229.296 292.475C229.656 292.835 229.553 293.453 229.244 293.865C228.987 294.276 228.575 294.688 228.524 295.151C228.421 295.821 228.935 296.49 229.553 296.747C230.171 297.004 230.891 297.004 231.561 296.953C236.914 296.49 241.907 294.173 246.591 291.548" stroke="black" stroke-width="1.5" stroke-miterlimit="10" stroke-linecap="round" stroke-linejoin="round"/>
<path d="M184.061 314.814C177.678 319.035 171.296 322.483 166.148 328.145C164.913 329.535 163.626 331.028 163.06 332.778C162.494 334.579 162.751 336.741 164.192 337.977C165.479 339.109 167.384 339.16 169.082 339.057C175.105 338.697 180.921 336.844 186.686 334.94C215.047 325.417 243.151 312.961 264.976 292.475C267.858 289.798 270.638 286.916 272.285 283.313C272.594 282.644 272.851 281.923 272.748 281.202C272.542 279.452 270.432 278.577 268.682 278.371C261.733 277.599 249.637 281.511 241.453 284.548" stroke="black" stroke-width="1.5" stroke-miterlimit="10" stroke-linecap="round" stroke-linejoin="round"/>
<path d="M184.93 316.513C185.753 318.469 188.327 318.829 190.437 318.572C197.335 317.748 203.357 313.115 210.306 312.446C211.438 312.343 213.806 312.395 214.578 313.321C215.196 314.093 214.166 315.174 213.806 316.101C213.445 317.027 212.828 317.799 212.313 318.572C211.129 320.425 210.409 322.792 211.284 324.851C212.262 327.116 214.938 328.248 217.409 328.145C219.88 328.042 222.144 326.859 224.306 325.675C229.659 322.741 234.807 319.292 240.572 317.388C242.219 316.821 243.969 316.41 245.719 316.667C247.469 316.924 249.167 318.005 249.734 319.652" stroke="black" stroke-width="1.5" stroke-miterlimit="10" stroke-linecap="round" stroke-linejoin="round"/>
<path d="M188.336 325.057C189.159 325.314 190.035 325.211 190.91 325.057C192.968 324.645 194.976 324.028 197.086 323.925C199.197 323.822 201.41 324.388 202.8 325.932C203.881 327.116 204.292 328.763 205.065 330.153C206.145 332.16 207.998 333.704 210.16 334.425C213.609 335.609 217.366 334.631 220.764 333.396C224.161 332.16 227.558 330.565 231.161 330.462C233.992 330.41 236.875 331.285 239.139 332.984C239.448 333.241 239.809 333.601 239.654 333.962" stroke="black" stroke-width="1.5" stroke-miterlimit="10" stroke-linecap="round" stroke-linejoin="round"/>
<path d="M311.031 178.586C315.997 175.783 320.962 172.98 326.007 170.097C327.929 169.056 329.771 167.934 331.533 166.733" stroke="black" stroke-width="1.5" stroke-miterlimit="10" stroke-linecap="round" stroke-linejoin="round"/>
<path d="M310.613 178.425C307.249 178.025 300.762 176.984 300.762 176.984C300.762 176.984 276.256 145.991 264.724 129.973C260.639 124.287 252.07 111.874 252.07 111.874C253.272 102.424 256.475 89.8505 259.038 80.6407L259.839 80C270.81 82.0822 281.782 84.5649 292.594 87.3679L294.035 87.7683C306.529 113.876 319.102 139.904 331.595 166.012" stroke="black" stroke-width="1.5" stroke-miterlimit="10" stroke-linecap="round" stroke-linejoin="round"/>
<path d="M259.852 80.8811C264.977 83.9244 268.821 86.9676 273.867 90.171C278.832 93.3745 284.198 96.4177 288.762 100.182C292.767 103.545 295.65 109.552 298.453 113.876C301.576 118.762 304.459 123.807 307.342 128.852C314.47 141.346 321.277 154.159 329.126 166.252" stroke="black" stroke-width="1.5" stroke-miterlimit="10" stroke-linecap="round" stroke-linejoin="round"/>
<path d="M259.531 80.4006C261.293 85.7664 262.494 91.3724 263.696 96.8983C264.817 102.104 265.137 108.671 267.78 113.316C270.743 118.441 273.706 123.647 276.83 128.692C282.996 138.863 289.563 148.794 296.531 158.404C301.256 164.971 306.061 171.458 311.106 177.785" stroke="black" stroke-width="1.5" stroke-miterlimit="10" stroke-linecap="round" stroke-linejoin="round"/>
<path d="M252 112.115C254.883 112.275 257.846 112.355 260.729 112.515C262.812 112.595 265.134 112.836 267.136 112.275C269.699 111.474 272.262 109.792 274.664 108.671C279.63 106.269 284.515 103.946 289.48 101.543" stroke="black" stroke-width="1.5" stroke-miterlimit="10" stroke-linecap="round" stroke-linejoin="round"/>
<path d="M293.166 87.5281C292.045 92.093 291.004 96.6578 289.883 101.223" stroke="black" stroke-width="1.5" stroke-miterlimit="10" stroke-linecap="round" stroke-linejoin="round"/>
<path d="M300.859 177.224C310.229 181.629 319.599 186.194 328.809 190.999" stroke="black" stroke-width="1.5" stroke-miterlimit="10" stroke-linecap="round" stroke-linejoin="round"/>
<path d="M331.447 166.893C330.567 174.741 329.766 182.51 329.125 190.358" stroke="black" stroke-width="1.5" stroke-miterlimit="10" stroke-linecap="round" stroke-linejoin="round"/>
<path d="M310.469 178.426C316.635 182.109 322.722 186.034 328.488 190.278" stroke="black" stroke-width="1.5" stroke-miterlimit="10" stroke-linecap="round" stroke-linejoin="round"/>
<path d="M7.98439 116.375C4.55529 112.237 1.12617 106.088 1.00792 101.122C0.889679 96.1553 2.07211 93.081 6.09243 89.8884C9.40328 87.287 13.5419 85.9863 17.7987 85.2768C26.9035 83.6214 38.3733 82.9119 47.5963 84.3309C64.2688 86.9322 83.3062 90.4796 99.151 96.1553C123.864 105.024 145.739 114.483 169.388 125.835C192.328 136.831 211.956 149.484 233.004 163.91C249.203 175.025 265.403 189.096 275.099 206.123C276.873 209.315 278.528 212.626 278.883 216.292C279.356 219.839 278.41 223.741 275.809 226.343C271.433 230.6 265.639 234.383 257.717 234.383" stroke="black" stroke-width="1.5" stroke-miterlimit="10" stroke-linecap="round" stroke-linejoin="round"/>
<path d="M171.158 231.191C185.82 236.157 201.192 238.877 216.564 239.35C224.25 239.586 232.054 239.232 239.74 238.286C245.061 237.694 254.875 237.931 258.068 232.728C259.25 230.718 259.723 228.235 259.605 225.87C259.487 218.42 255.584 211.562 251.091 205.65C231.699 179.754 204.739 166.038 178.016 149.366C149.164 131.392 115.346 117.203 82.5925 107.743C63.9099 102.422 44.636 98.5204 25.2439 99.5846C20.5141 99.8211 13.7742 100.412 10.3451 104.078C7.2707 107.507 7.74363 113.537 9.04432 117.558C11.5275 125.48 16.2572 132.457 21.46 138.96C32.6933 153.149 45.9367 165.683 60.599 175.971" stroke="black" stroke-width="1.5" stroke-miterlimit="10" stroke-linecap="round" stroke-linejoin="round"/>
<path d="M11.5312 103.723C22.4098 122.287 39.2005 136.595 56.1095 149.956" stroke="black" stroke-width="1.5" stroke-miterlimit="10" stroke-linecap="round" stroke-linejoin="round"/>
<path d="M59.8984 103.367C66.2836 120.04 75.9797 135.412 88.1589 148.419" stroke="black" stroke-width="1.5" stroke-miterlimit="10" stroke-linecap="round" stroke-linejoin="round"/>
<path d="M157.921 139.078C153.309 149.484 147.16 159.18 139.711 167.812" stroke="black" stroke-width="1.5" stroke-miterlimit="10" stroke-linecap="round" stroke-linejoin="round"/>
<path d="M231.114 186.376C215.151 192.288 196.823 194.653 179.914 192.761" stroke="black" stroke-width="1.5" stroke-miterlimit="10" stroke-linecap="round" stroke-linejoin="round"/>
<path d="M258.183 225.751C238.91 228.825 219.281 226.815 200.953 220.194" stroke="black" stroke-width="1.5" stroke-miterlimit="10" stroke-linecap="round" stroke-linejoin="round"/>
<path d="M195.876 210.261C187.481 199.737 177.194 191.578 166.079 184.01C139.119 165.446 108.139 152.676 75.9761 147C72.4288 146.409 68.8815 145.817 65.3341 146.054C60.6043 146.409 56.2293 147.828 55.4015 152.794C54.4556 157.76 55.1651 162.726 57.057 167.456C59.3036 172.895 62.9692 177.625 66.9895 182C87.5641 204.585 117.362 220.784 147.041 227.997C160.876 231.427 175.183 232.136 189.136 230.008C191.501 229.653 193.748 229.18 195.876 228.116C198.005 227.051 199.896 225.396 200.606 223.149C201.907 219.011 199.187 214.754 196.586 211.207" stroke="black" stroke-width="1.5" stroke-miterlimit="10" stroke-linecap="round" stroke-linejoin="round"/>
<path d="M83.077 184.957C89.344 193.471 102.587 201.866 114.175 207.423C126.473 213.336 139.361 218.775 152.841 220.549C155.206 220.903 157.689 221.022 159.936 220.312C162.183 219.603 164.311 217.711 164.666 215.346C164.902 213.69 164.311 212.035 163.602 210.498C159.936 203.167 151.186 197.373 144.091 193.234C130.02 185.193 117.368 178.217 101.878 173.133C81.8945 166.747 75.7458 175.024 83.077 184.957Z" stroke="black" stroke-width="1.5" stroke-miterlimit="10" stroke-linecap="round" stroke-linejoin="round"/>
<path d="M87.3281 171.595C93.8316 179.754 102.227 186.139 111.095 191.342C120.082 196.545 129.66 200.565 139.238 204.585C145.386 207.068 151.653 209.551 158.157 209.906C159.812 210.024 161.586 209.906 163.241 210.379" stroke="black" stroke-width="1.5" stroke-miterlimit="10" stroke-linecap="round" stroke-linejoin="round"/>
<path d="M95.0132 180.583C92.8848 183.539 91.2293 186.968 90.0469 190.515" stroke="black" stroke-width="1.5" stroke-miterlimit="10" stroke-linecap="round" stroke-linejoin="round"/>
<path d="M107.297 190.16C105.76 193.352 104.223 196.663 102.922 199.974" stroke="black" stroke-width="1.5" stroke-miterlimit="10" stroke-linecap="round" stroke-linejoin="round"/>
<path d="M121.847 198.555C119.955 201.63 118.418 204.941 117.117 208.251" stroke="black" stroke-width="1.5" stroke-miterlimit="10" stroke-linecap="round" stroke-linejoin="round"/>
<path d="M136.285 204.704C135.221 208.015 133.92 211.208 132.383 214.282" stroke="black" stroke-width="1.5" stroke-miterlimit="10" stroke-linecap="round" stroke-linejoin="round"/>
<path d="M151.903 209.906C151.193 213.099 150.247 216.173 148.828 219.011" stroke="black" stroke-width="1.5" stroke-miterlimit="10" stroke-linecap="round" stroke-linejoin="round"/>
<path d="M103.063 141.206C108.029 144.399 115.242 146.291 122.573 146.291C127.421 146.291 127.658 143.571 126.357 140.615C124.82 136.831 119.854 134.821 116.07 133.52C112.286 132.22 109.212 131.155 105.191 131.274C98.4513 131.51 95.1404 136.24 103.063 141.206Z" stroke="black" stroke-width="1.5" stroke-miterlimit="10" stroke-linecap="round" stroke-linejoin="round"/>
<path d="M169.625 172.423C173.763 176.562 180.385 180.227 187.48 181.764C192.21 182.828 193.037 180.227 192.446 177.035C191.737 173.014 187.361 169.94 184.051 167.811C180.74 165.683 177.902 163.909 174 163.2C167.378 161.899 163.121 165.801 169.625 172.423Z" stroke="black" stroke-width="1.5" stroke-miterlimit="10" stroke-linecap="round" stroke-linejoin="round"/>
<path d="M41.1044 126.544C42.878 128.436 45.1246 129.855 47.4895 130.564C48.4355 130.801 49.4997 131.037 50.4456 130.801C51.3916 130.564 52.3376 129.973 52.5741 128.909C52.8106 128.199 52.5741 127.372 52.3376 126.662C50.8004 122.287 47.1348 119.213 43.5875 116.375C41.6956 114.838 39.6854 113.3 37.4387 112.827C36.4928 112.591 35.5469 112.591 34.8374 113.182C33.7732 113.892 33.6549 115.429 33.8914 116.73C34.2461 118.503 35.3103 120.04 36.4928 121.459C38.03 123.469 39.9219 125.361 41.9321 127.017" stroke="black" stroke-width="1.5" stroke-miterlimit="10" stroke-linecap="round" stroke-linejoin="round"/>
<path d="M39.3029 151.849C40.4853 153.268 42.259 154.095 44.0326 154.332C44.7421 154.45 45.6881 154.332 46.161 153.74C46.8705 152.913 46.5158 151.612 46.0428 150.666C44.0327 146.764 40.6036 143.69 36.5832 142.034C35.8738 141.68 35.046 141.443 34.3366 141.798C33.7453 142.153 33.3906 142.744 33.3906 143.453C33.3906 144.163 33.6271 144.754 33.8636 145.345C35.2825 148.301 37.6474 150.548 40.1306 152.558" stroke="black" stroke-width="1.5" stroke-miterlimit="10" stroke-linecap="round" stroke-linejoin="round"/>
<path d="M238.431 216.765C239.85 216.41 243.752 215.819 244.462 213.809C244.816 212.626 243.989 209.67 242.451 208.724C241.032 207.778 237.722 206.832 236.066 206.714C231.218 206.359 225.542 206.004 222.232 207.778C219.63 209.197 219.985 211.444 220.694 212.863C221.049 213.572 221.64 214.163 222.35 214.636C225.542 216.765 233.11 217.829 238.431 216.765Z" stroke="black" stroke-width="1.5" stroke-miterlimit="10" stroke-linecap="round" stroke-linejoin="round"/>
<path d="M210.781 233.791C213.146 233.91 215.038 234.146 217.048 233.2C217.994 232.727 219.177 232.136 219.177 231.19C219.177 230.48 218.467 229.653 217.876 229.298C217.285 228.825 216.694 228.707 215.984 228.47C212.319 227.288 208.298 226.933 204.633 228.116C202.741 228.707 202.859 231.426 204.16 232.136C205.579 233.082 207.944 233.555 210.781 233.791Z" stroke="black" stroke-width="1.5" stroke-miterlimit="10" stroke-linecap="round" stroke-linejoin="round"/>
<path d="M32.5625 83.8573C80.9246 77.1173 131.297 85.631 174.693 107.979C218.088 130.327 254.389 166.274 277.092 209.433" stroke="black" stroke-width="1.5" stroke-miterlimit="10" stroke-linecap="round" stroke-linejoin="round"/>
<path d="M90.8672 81.966C95.124 77.5909 100.682 74.6348 106.357 72.3882C129.888 62.8103 157.321 63.6381 180.26 74.5166C203.2 85.3951 221.173 106.206 228.504 130.565C230.159 136.122 231.342 141.916 230.632 147.592" stroke="black" stroke-width="1.5" stroke-miterlimit="10" stroke-linecap="round" stroke-linejoin="round"/>
<path d="M187.011 66.7122C185.711 69.4318 184.41 72.1514 183.109 74.871" stroke="black" stroke-width="1.5" stroke-miterlimit="10" stroke-linecap="round" stroke-linejoin="round"/>
<path d="M188.43 66.5939C191.386 66.9487 194.579 65.175 195.407 62.2189C195.88 60.4452 195.88 58.5533 195.288 56.8979C194.815 55.8337 193.988 54.7695 193.042 54.06C191.623 52.9958 189.731 52.7593 188.076 53.2323C186.42 53.7053 185.001 55.006 184.055 56.4249C183.227 57.6073 182.991 59.381 183.228 60.5635C183.109 60.5635 183.228 65.8845 188.43 66.5939Z" stroke="black" stroke-width="1.5" stroke-miterlimit="10" stroke-linecap="round" stroke-linejoin="round"/>
</svg>
